<svg width="91" height="19" viewBox="0 0 91 19" fill="none" xmlns="http://www.w3.org/2000/svg">
<path d="M8.984 7.56H8.576V7.512C12.152 7.512 14.264 6.192 14.264 3.984C14.264 1.632 12.392 0.24 9.176 0.24H0.776V18H8.6C12.944 18 15.512 15.984 15.512 12.576C15.512 9.408 13.088 7.56 8.984 7.56ZM9.944 5.472C9.944 6.744 9.128 7.512 7.784 7.512H4.952V3.432H7.784C9.128 3.432 9.944 4.176 9.944 5.472ZM8.792 14.808H4.952V10.344H8.792C10.28 10.344 11.192 11.16 11.192 12.576C11.192 13.968 10.28 14.808 8.792 14.808ZM21.6751 14.808V10.512H29.7151V7.32H21.6751V3.432H30.5551V0.24H17.4991V18H30.8191V14.808H21.6751ZM39.4618 18.24C44.2138 18.24 47.0218 16.032 47.0218 12.312C47.0218 8.16 43.3258 7.608 40.3258 7.176C38.2858 6.888 36.5338 6.624 36.5338 5.208C36.5338 3.984 37.5418 3.264 39.2218 3.264C41.0938 3.264 42.2698 4.368 42.4138 6.264H46.5178C46.1098 2.328 43.4938 -1.43051e-06 39.4618 -1.43051e-06C34.9738 -1.43051e-06 32.3098 1.92 32.3098 5.568C32.3098 9.672 35.8618 10.152 38.7658 10.56C40.9258 10.848 42.7978 11.136 42.7978 12.792C42.7978 14.16 41.5978 14.976 39.5578 14.976C37.4938 14.976 36.1498 13.752 35.9098 11.688H31.8058C32.2138 15.816 35.0458 18.24 39.4618 18.24ZM60.1813 0.24L60.3733 17.664H60.3253L55.8853 0.24H49.1173V18H53.0773L52.8853 0.576H52.9333L57.3733 18H64.1173V0.24H60.1813ZM67.1998 18H71.3758V0.24H67.1998V18ZM82.9021 8.688L89.9581 0.24H85.2781L78.5101 8.616H78.4621V0.24H74.4541V18H78.4621V8.856H78.5101L85.9981 18H90.9901L82.9021 8.688Z" fill="white"/>
</svg>
