<svg width="1058" height="218" viewBox="0 0 1058 218" fill="none" xmlns="http://www.w3.org/2000/svg">
<rect x="108.072" y="5.1824" width="265.698" height="88" rx="44" transform="rotate(11.729 108.072 5.1824)" fill="#141414" stroke="black" stroke-width="2"/>
<path fill-rule="evenodd" clip-rule="evenodd" d="M270.353 80.8283C269.899 79.9501 268.743 78.9898 267.341 78.6986C263.259 77.8511 260.568 80.3008 259.703 84.4644C258.834 88.6484 260.34 91.906 264.422 92.7536C266.129 93.1079 267.538 92.447 268.067 91.8365L267.776 93.2381L271.126 93.9337L275.095 74.8215L271.744 74.1258L270.353 80.8283ZM269.493 86.4972C268.932 89.1985 267.251 90.3537 265.505 89.991C263.758 89.6283 262.677 87.8996 263.238 85.1983C263.799 82.497 265.478 81.3416 267.225 81.7043C268.952 82.063 270.054 83.7959 269.493 86.4972ZM168.663 62.1929C169.549 60.0676 171.844 58.9128 174.627 59.4906C177.856 60.1611 180.056 62.0161 179.149 66.3829L177.466 74.4867L174.704 73.9132L174.722 72.0948C173.522 73.0746 172.103 73.5849 170.133 73.1758C167.817 72.6951 166.289 70.8735 166.85 68.1722C167.411 65.4709 170.17 64.2218 173.562 64.9261L175.816 65.3942L175.943 64.7849C176.259 63.2617 175.223 62.538 173.964 62.2765C173.009 62.0783 171.991 62.1848 171.283 63.3513L168.663 62.1929ZM171.515 70.4969C173.039 70.8131 174.858 70.1105 175.221 68.3638L175.276 68.0998L173.062 67.6401C171.628 67.3 170.637 67.6874 170.392 68.8654C170.278 69.5195 170.601 70.3071 171.515 70.4969ZM200.864 65.3404L193.696 78.0257L190.731 77.41L190.201 68.1263L186.01 76.4722L183.045 75.8565L181.52 61.3663L184.932 62.0748L185.434 71.9033L189.685 63.0616L192.772 63.7026L193.152 73.5059L197.525 64.6895L200.864 65.3404ZM211.121 77.237L215.462 68.3715L218.854 69.0758L211.678 81.8016L208.712 81.1859L208.203 71.9065L204.021 80.2118L201.055 79.5961L200.468 73.648L202.286 70.4026L202.645 69.7991L203.424 75.6387L207.622 66.7437L210.77 67.3974L211.121 77.237ZM233.492 72.1153L229.111 80.9723L228.76 71.1326L225.612 70.479L221.413 79.374L220.634 73.5344L220.276 74.1379L218.458 77.3833L219.045 83.3313L222.01 83.947L226.192 75.6418L226.702 84.9212L229.667 85.5369L236.844 72.8112L233.492 72.1153ZM243.905 73.8752C241.122 73.2974 238.828 74.4522 237.941 76.5775L240.582 77.7402C241.29 76.5737 242.308 76.4672 243.262 76.6654C244.521 76.9269 245.558 77.6506 245.242 79.1738L245.115 79.7831L242.86 79.3149C239.468 78.6107 236.709 79.8597 236.148 82.561C235.587 85.2623 237.116 87.0839 239.431 87.5647C241.401 87.9738 242.821 87.4635 244.02 86.4836L244.003 88.3021L246.744 88.8714L248.427 80.7675C249.334 76.4008 247.134 74.5457 243.905 73.8752ZM244.499 82.7485C244.137 84.4952 242.317 85.1978 240.793 84.8815C239.88 84.6918 239.556 83.9043 239.662 83.2907C239.915 82.0721 240.898 81.7254 242.34 82.0248L244.554 82.4845L244.499 82.7485ZM247.976 89.3389L250.806 75.7106L254.157 76.4065L253.698 78.6203C254.985 77.214 256.682 76.6976 258.205 77.014C258.814 77.1404 259.285 77.3228 259.796 77.6195L258.545 80.5803C258.214 80.2359 257.792 80.0214 257.223 79.9033C255.274 79.4985 253.234 80.7486 252.319 85.156L251.316 89.9899L247.976 89.3389ZM284.355 84.5826L281.965 85.9932C281.528 85.0338 280.686 84.4988 279.955 84.3469C279.305 84.212 278.616 84.4714 278.459 85.2229C278.333 85.8322 278.732 86.36 279.49 86.7928C279.718 86.9354 279.967 87.0804 280.226 87.2309L280.227 87.2312C281.928 88.2194 284.063 89.4597 283.536 91.9973C283.022 94.4752 280.727 96.1384 277.762 95.5228C274.938 94.9365 273.427 92.5253 273.118 90.7451L276.078 89.8554C276.296 91.2565 277.011 92.4009 278.352 92.6794C279.387 92.8943 280.159 92.546 280.366 91.5509C280.546 90.6828 279.603 90.1122 278.479 89.4319C278.13 89.2206 277.764 88.9991 277.409 88.7546C276.053 87.8375 274.991 86.6213 275.425 84.5293C275.86 82.4373 277.954 80.9231 280.595 81.4714C282.377 81.8628 283.792 83.1099 284.355 84.5826ZM288.847 95.4733C289.116 94.1734 288.36 93.0206 287.061 92.7508C285.781 92.4851 284.587 93.2329 284.338 94.5371C284.068 95.837 284.824 96.9897 286.124 97.2597C287.424 97.5295 288.577 96.7732 288.847 95.4733Z" fill="white"/>
<rect x="1" y="122" width="274" height="88" rx="44" fill="white" stroke="black" stroke-width="2"/>
<path fill-rule="evenodd" clip-rule="evenodd" d="M79.126 159C77.8875 159 76.754 159.202 75.7569 159.598C74.7599 159.994 73.8973 160.548 73.1933 161.244C72.4911 161.94 71.9437 162.77 71.5679 163.713C71.1918 164.654 71 165.683 71 166.773C71 167.81 71.1805 168.782 71.5343 169.66C71.8882 170.54 72.4006 171.311 73.0567 171.95C73.711 172.59 74.5145 173.097 75.4434 173.458C76.3704 173.818 77.4154 174 78.5508 174C80.134 174 81.5641 173.735 82.8026 173.213L82.8837 173.178V171.588L82.6736 171.693C81.542 172.257 80.2114 172.542 78.7166 172.542C77.7473 172.542 76.8846 172.386 76.1567 172.078C75.4269 171.768 74.8076 171.346 74.3192 170.819C73.8289 170.29 73.4512 169.664 73.2004 168.958C72.948 168.247 72.8209 167.479 72.8209 166.676C72.8209 165.779 72.9628 164.941 73.2446 164.185C73.5249 163.433 73.9357 162.772 74.4666 162.22C74.9955 161.67 75.6572 161.236 76.4295 160.926C77.2036 160.616 78.1028 160.46 79.1037 160.46C80.3661 160.46 81.5678 160.714 82.6792 161.212L82.8837 161.303V159.597L82.7936 159.565C81.7209 159.19 80.4861 159 79.126 159Z" fill="#161616"/>
<path fill-rule="evenodd" clip-rule="evenodd" d="M94.0583 167.738C93.7246 167.403 93.3008 167.078 92.7995 166.772C92.3037 166.47 91.7158 166.155 91.0504 165.836C90.422 165.534 89.8819 165.262 89.4469 165.029C89.0214 164.8 88.6729 164.566 88.4132 164.336C88.1587 164.111 87.9726 163.87 87.8584 163.618C87.7442 163.367 87.6868 163.06 87.6868 162.707C87.6868 162.339 87.7718 162.014 87.9395 161.739C88.1089 161.462 88.345 161.227 88.6379 161.042C88.9366 160.851 89.2903 160.705 89.6885 160.608C90.092 160.508 90.527 160.458 90.9841 160.458C92.2134 160.458 93.299 160.697 94.2093 161.168L94.4214 161.277V159.51L94.3328 159.477C93.4795 159.161 92.4087 159 91.1499 159C90.4312 159 89.7456 159.089 89.1116 159.265C88.4758 159.441 87.9118 159.696 87.4363 160.026C86.9589 160.357 86.5738 160.763 86.2917 161.235C86.0099 161.709 85.8659 162.251 85.8659 162.846C85.8659 163.317 85.9417 163.743 86.0909 164.112C86.2401 164.483 86.476 164.835 86.7931 165.153C87.1046 165.467 87.5118 165.779 88.0021 166.079C88.4869 166.374 89.0766 166.692 89.7548 167.024C90.3612 167.327 90.8957 167.602 91.3436 167.842C91.7821 168.079 92.1489 168.319 92.4363 168.556C92.7147 168.79 92.9229 169.042 93.0556 169.305C93.1866 169.57 93.2529 169.886 93.2529 170.243C93.2529 170.99 92.9782 171.547 92.4124 171.941C91.8429 172.339 90.9639 172.541 89.8009 172.541C89.5004 172.541 89.1798 172.517 88.8498 172.468C88.52 172.42 88.1863 172.347 87.8584 172.254C87.5321 172.16 87.2078 172.043 86.8944 171.903C86.583 171.766 86.2954 171.606 86.0375 171.434L85.8107 171.28V173.156L85.8772 173.195C86.0854 173.311 86.3581 173.422 86.6881 173.521C87.0105 173.618 87.357 173.704 87.7147 173.773C88.0703 173.843 88.4279 173.898 88.7779 173.933C89.1282 173.972 89.4359 173.989 89.6903 173.989C90.4662 173.989 91.1886 173.907 91.8392 173.745C92.4953 173.583 93.0685 173.337 93.5459 173.019C94.0269 172.696 94.4048 172.285 94.672 171.795C94.9391 171.306 95.0738 170.732 95.0738 170.093C95.0738 169.629 94.9891 169.2 94.8194 168.819C94.6517 168.439 94.3956 168.076 94.0583 167.738Z" fill="#161616"/>
<path fill-rule="evenodd" clip-rule="evenodd" d="M106.908 168.82C106.74 168.439 106.484 168.076 106.147 167.738C105.813 167.403 105.389 167.078 104.888 166.771C104.392 166.47 103.804 166.155 103.139 165.835C102.511 165.534 101.971 165.262 101.536 165.028C101.11 164.8 100.761 164.566 100.502 164.336C100.247 164.11 100.061 163.87 99.947 163.618C99.8326 163.366 99.7754 163.06 99.7754 162.707C99.7754 162.339 99.8602 162.014 100.028 161.739C100.198 161.462 100.433 161.227 100.726 161.042C101.025 160.851 101.379 160.705 101.777 160.607C102.181 160.508 102.616 160.458 103.073 160.458C104.302 160.458 105.387 160.697 106.298 161.167L106.51 161.277V159.51L106.421 159.477C105.568 159.161 104.497 159 103.238 159C102.52 159 101.834 159.089 101.2 159.265C100.564 159.441 100 159.696 99.5249 160.026C99.0475 160.357 98.6622 160.763 98.3803 161.235C98.0982 161.709 97.9545 162.251 97.9545 162.846C97.9545 163.317 98.0301 163.743 98.1795 164.112C98.3288 164.483 98.5646 164.835 98.8817 165.153C99.193 165.467 99.6004 165.779 100.091 166.079C100.575 166.374 101.165 166.692 101.843 167.024C102.45 167.327 102.984 167.602 103.432 167.842C103.871 168.079 104.237 168.32 104.525 168.557C104.803 168.79 105.012 169.042 105.144 169.305C105.275 169.57 105.341 169.886 105.341 170.243C105.341 170.99 105.067 171.547 104.501 171.941C103.931 172.339 103.052 172.541 101.889 172.541C101.589 172.541 101.268 172.517 100.938 172.468C100.609 172.42 100.275 172.347 99.947 172.254C99.6207 172.16 99.2962 172.043 98.983 171.903C98.6714 171.766 98.384 171.606 98.1261 171.434L97.8993 171.28V173.156L97.9656 173.195C98.174 173.311 98.4467 173.422 98.7767 173.521C99.0991 173.618 99.4457 173.704 99.8031 173.773C100.159 173.843 100.516 173.898 100.867 173.933C101.217 173.972 101.524 173.989 101.779 173.989C102.555 173.989 103.277 173.907 103.928 173.745C104.584 173.583 105.157 173.337 105.634 173.019C106.116 172.696 106.493 172.285 106.761 171.795C107.028 171.306 107.162 170.733 107.162 170.093C107.162 169.63 107.077 169.201 106.908 168.82Z" fill="#161616"/>
<path d="M140.173 159.243H138.418V173.756H140.173V159.243Z" fill="#161616"/>
<path fill-rule="evenodd" clip-rule="evenodd" d="M174.618 171.119C174.603 171.101 164.394 159.244 164.394 159.244H162.554V173.756H164.308C164.308 173.756 164.303 161.998 164.293 161.784C164.298 161.791 174.632 173.756 174.632 173.756H176.374V159.243H174.609C174.609 159.243 174.61 171.026 174.618 171.119Z" fill="#161616"/>
<path fill-rule="evenodd" clip-rule="evenodd" d="M156.523 171.119C156.51 171.101 146.301 159.244 146.301 159.244H144.461V173.756H146.215C146.215 173.756 146.21 161.998 146.199 161.784C146.204 161.791 156.539 173.756 156.539 173.756H158.281V159.243H156.515C156.515 159.243 156.516 171.026 156.523 171.119Z" fill="#161616"/>
<path fill-rule="evenodd" clip-rule="evenodd" d="M182.406 167.135H189.157V165.686H182.406V160.712H190.543V159.244H180.651V173.756H190.896V172.298H182.406V167.135Z" fill="#161616"/>
<path d="M203.221 169.153C203.044 168.855 202.871 168.585 202.708 168.351C202.544 168.116 202.374 167.904 202.204 167.721C202.033 167.536 201.853 167.377 201.67 167.246C201.569 167.173 201.46 167.108 201.346 167.051C201.794 166.938 202.205 166.787 202.575 166.597C203.034 166.362 203.428 166.072 203.751 165.734C204.075 165.396 204.328 165.003 204.501 164.566C204.676 164.13 204.765 163.646 204.765 163.131C204.765 162.491 204.626 161.92 204.357 161.434C204.086 160.948 203.723 160.539 203.273 160.218C202.827 159.898 202.311 159.653 201.74 159.49C201.173 159.328 200.575 159.245 199.969 159.245H194.363V173.757H196.117V167.552H198.618C198.935 167.552 199.224 167.585 199.48 167.652C199.731 167.716 199.971 167.826 200.19 167.976C200.415 168.131 200.636 168.343 200.847 168.602C201.063 168.869 201.289 169.204 201.523 169.601L203.911 173.687L203.953 173.754H206L203.221 169.153ZM196.118 160.712H199.625C200.705 160.712 201.538 160.941 202.102 161.39C202.661 161.837 202.944 162.462 202.944 163.249C202.944 163.686 202.862 164.084 202.696 164.432C202.532 164.778 202.297 165.078 202 165.322C201.703 165.569 201.338 165.76 200.916 165.893C200.49 166.026 200.015 166.094 199.503 166.094H196.117L196.118 160.712Z" fill="#161616"/>
<path fill-rule="evenodd" clip-rule="evenodd" d="M109.703 159.244L120.548 173.754L121.49 172.511L111.585 159.244H109.703Z" fill="#161616"/>
<path fill-rule="evenodd" clip-rule="evenodd" d="M133.682 159.244L124.727 171.26L118.253 162.497H116.348L124.749 173.755L135.567 159.244H133.682Z" fill="#161616"/>
<path fill-rule="evenodd" clip-rule="evenodd" d="M131.352 159.244H129.47L123.786 166.892L124.721 168.145L131.352 159.244Z" fill="#161616"/>
<rect x="805.665" y="19.2483" width="274" height="88" rx="44" transform="rotate(16.9699 805.665 19.2483)" fill="white" stroke="black" stroke-width="2"/>
<path fill-rule="evenodd" clip-rule="evenodd" d="M855.26 84.6839L849.424 73.842L860.319 68.1053L851.954 65.5527L841.059 71.2893L843.963 76.7569L849.827 87.5057L855.26 84.6839Z" fill="#161616"/>
<path fill-rule="evenodd" clip-rule="evenodd" d="M862.459 82.4011L859.555 76.9336L856.623 71.5591L851.283 74.4093L857.026 85.2228L846.131 90.9595L854.496 93.5121L859.929 90.6904L865.391 87.7754L862.459 82.4011Z" fill="#161616"/>
<path fill-rule="evenodd" clip-rule="evenodd" d="M878.134 82.588C876.928 82.22 875.793 82.2831 874.794 82.8992C873.795 83.5154 873.081 84.5256 872.624 86.0236C872.167 87.5215 872.195 88.7583 872.587 89.799C873.072 90.8681 873.885 91.5258 875.184 91.9221C876.019 92.1769 876.911 92.2444 878.017 92.2748L877.646 93.4919C876.725 93.5181 875.74 93.4223 874.627 93.0826C872.957 92.573 871.802 91.7085 871.188 90.3956C870.575 89.0827 870.568 87.4431 871.139 85.5707C871.511 84.3535 872.011 83.3803 872.732 82.6792C873.453 81.9782 874.331 81.4274 875.216 81.1856C876.1 80.944 877.207 80.9746 878.413 81.3426C879.619 81.7106 880.582 82.2092 881.367 82.9605L880.467 83.9141C879.811 83.4067 879.062 82.8711 878.134 82.588Z" fill="#161616"/>
<path fill-rule="evenodd" clip-rule="evenodd" d="M887.473 93.5229C887.159 94.5527 886.559 95.1885 885.645 95.5237C884.732 95.859 883.718 95.8568 882.42 95.4605C881.028 95.0359 880.065 94.5372 879.437 93.9363L879.837 92.6255C880.244 92.9543 880.743 93.3114 881.178 93.5466C881.614 93.7817 882.235 94.0736 882.791 94.2434C883.719 94.5265 884.425 94.5374 884.882 94.3697C885.46 94.1368 885.789 93.7253 885.96 93.1635C886.074 92.7891 886.096 92.3863 885.967 92.1424C885.868 91.8049 885.646 91.5327 885.361 91.1386C885.047 90.8381 884.576 90.3874 883.92 89.88C883.014 89.1942 882.322 88.4712 882.122 87.7963C881.83 87.093 881.844 86.381 882.101 85.5384C882.358 84.6958 882.958 84.0601 883.779 83.6965C884.599 83.3329 885.584 83.4288 886.605 83.7402C887.718 84.0799 888.681 84.5784 889.559 85.358L888.845 86.3682C888.032 85.7107 887.161 85.2403 886.233 84.9572C885.491 84.7308 884.97 84.7765 884.421 84.9158C883.964 85.0835 883.635 85.4949 883.464 86.0567C883.35 86.4312 883.328 86.834 883.364 87.0495C883.464 87.387 883.592 87.6309 883.906 87.9314C884.22 88.2318 884.598 88.6542 885.254 89.1616C886.318 89.9977 887.01 90.7206 887.331 91.3303C887.716 92.0619 887.701 92.7739 887.473 93.5229Z" fill="#161616"/>
<path fill-rule="evenodd" clip-rule="evenodd" d="M896.286 96.2122C895.971 97.242 895.372 97.8778 894.458 98.2131C893.545 98.5483 892.531 98.5461 891.233 98.1498C889.841 97.7252 888.878 97.2265 888.25 96.6256L888.65 95.3149C889.057 95.6436 889.556 96.0007 889.991 96.2359C890.427 96.4711 891.047 96.7629 891.604 96.9327C892.532 97.2158 893.238 97.2267 893.695 97.0591C894.273 96.8261 894.602 96.4147 894.773 95.8528C894.887 95.4784 894.909 95.0756 894.78 94.8317C894.68 94.4942 894.459 94.2221 894.174 93.8279C893.86 93.5274 893.389 93.0768 892.733 92.5694C891.827 91.8835 891.134 91.1606 890.935 90.4856C890.642 89.7823 890.657 89.0704 890.914 88.2277C891.171 87.3852 891.771 86.7494 892.592 86.3858C893.412 86.0222 894.397 86.1181 895.418 86.4295C896.531 86.7692 897.494 87.2678 898.372 88.0473L897.658 89.0576C896.844 88.4 895.974 87.9297 895.046 87.6466C894.304 87.4201 893.783 87.4658 893.234 87.6051C892.777 87.7728 892.448 88.1843 892.277 88.746C892.163 89.1205 892.141 89.5233 892.177 89.7389C892.277 90.0763 892.405 90.3202 892.719 90.6207C893.033 90.9211 893.411 91.3436 894.067 91.851C895.131 92.6871 895.823 93.4099 896.144 94.0197C896.436 94.7229 896.514 95.4632 896.286 96.2122Z" fill="#161616"/>
<path d="M908.767 96.8485C908.196 98.7209 907.182 100.049 905.848 100.767C904.513 101.486 902.857 101.595 900.909 101L897.198 99.868L900.712 88.3522L904.609 89.5412C906.464 90.1074 907.713 91.0002 908.447 92.2477C909.182 93.4954 909.31 95.0696 908.767 96.8485ZM905.585 95.9796C905.899 94.9497 905.971 94.0505 905.65 93.4408C905.421 92.8595 904.858 92.3804 904.023 92.1256L903.095 91.8425L901.124 98.3026L901.773 98.5008C902.701 98.7839 903.436 98.7011 904.071 98.281C904.799 97.8891 905.242 97.1031 905.585 95.9796Z" fill="#161616"/>
<path d="M913.004 104.896C911.52 104.443 910.521 103.729 909.943 102.631C909.337 101.628 909.309 100.391 909.766 98.893C910.223 97.395 910.937 96.3847 911.936 95.7686C912.936 95.1525 914.163 95.1177 915.555 95.5424C916.853 95.9387 917.759 96.6245 918.302 97.5064C918.844 98.3882 918.901 99.5314 918.501 100.842L918.072 102.246L912.599 100.576C912.456 101.044 912.527 101.475 912.784 101.963C913.069 102.357 913.476 102.686 914.033 102.856C914.589 103.026 915.082 103.074 915.574 103.122C916.066 103.169 916.587 103.124 917.23 103.013L916.544 105.26C915.995 105.399 915.502 105.351 914.917 105.275C914.332 105.199 913.747 105.123 913.004 104.896ZM914.99 97.7239C914.619 97.6107 914.312 97.6194 913.948 97.8154C913.613 97.9177 913.406 98.2639 913.17 98.7037L915.768 99.4963C915.911 99.0282 915.903 98.719 915.711 98.3533C915.704 98.044 915.454 97.8655 914.99 97.7239Z" fill="#161616"/>
<path fill-rule="evenodd" clip-rule="evenodd" d="M926.321 105.787C926.035 106.723 925.528 107.387 924.736 107.657C923.944 107.927 922.931 107.925 921.725 107.557C921.075 107.359 920.519 107.189 920.083 106.954C919.648 106.719 919.12 106.455 918.713 106.126L919.456 103.692C919.863 104.021 920.362 104.378 920.862 104.735C921.39 104.999 921.825 105.234 922.289 105.375C922.938 105.574 923.366 105.499 923.452 105.219C923.509 105.031 923.445 104.909 923.288 104.759C923.131 104.609 922.66 104.158 921.94 103.529C921.219 102.9 920.777 102.355 920.613 101.896C920.477 101.343 920.435 100.818 920.635 100.163C920.892 99.3202 921.37 98.7498 922.162 98.4797C922.955 98.2098 923.847 98.2773 925.053 98.6454C925.609 98.8152 926.137 99.0787 926.665 99.3422C927.193 99.6057 927.6 99.9345 928.071 100.385L926.636 102.096C926.322 101.796 925.915 101.467 925.48 101.232C925.045 100.997 924.702 100.79 924.424 100.705C923.96 100.564 923.653 100.572 923.567 100.853C923.51 101.04 923.575 101.162 923.732 101.313C923.889 101.463 924.295 101.792 925.016 102.421C925.58 102.9 925.986 103.229 926.179 103.594C926.371 103.96 926.564 104.326 926.571 104.635C926.514 104.822 926.464 105.319 926.321 105.787Z" fill="#161616"/>
<path d="M930.562 97.8705C930.705 97.4023 930.912 97.0562 931.248 96.9539C931.583 96.8516 932.011 96.7776 932.568 96.9475C933.125 97.1173 933.56 97.3525 933.66 97.69C933.881 97.9622 933.859 98.3649 933.717 98.8331C933.431 99.7693 932.76 99.974 931.647 99.6342C930.598 99.4165 930.277 98.8067 930.562 97.8705ZM930.224 109.946L927.162 109.012L929.877 100.117L932.938 101.052L930.224 109.946Z" fill="#161616"/>
<path d="M943.421 104.251L942.964 105.749L941.615 105.849C941.715 106.186 941.693 106.589 941.579 106.964C941.293 107.9 940.694 108.535 939.873 108.899C939.052 109.263 937.974 109.138 936.675 108.742C936.304 108.629 936.119 108.572 935.962 108.422C935.84 108.487 935.783 108.675 935.755 108.768C935.697 108.955 935.762 109.077 936.011 109.256C936.261 109.434 936.54 109.519 936.911 109.633L938.395 110.086C940.343 110.68 941.107 111.834 940.592 113.519C940.25 114.643 939.529 115.344 938.429 115.623C937.33 115.901 935.917 115.879 934.247 115.37C933.041 115.002 932.078 114.503 931.571 113.837C931.036 113.264 930.865 112.495 931.093 111.746C931.408 110.717 932.286 110.166 933.67 110.281C933.42 110.103 933.292 109.859 933.099 109.493C933 109.156 932.964 108.94 933.05 108.659C933.135 108.378 933.314 108.126 933.464 107.967C933.706 107.836 934.07 107.64 934.62 107.501C934.213 107.172 933.957 106.684 933.792 106.225C933.657 105.672 933.707 105.175 933.907 104.52C934.193 103.584 934.792 102.948 935.613 102.584C936.434 102.221 937.448 102.223 938.654 102.591C938.839 102.648 939.118 102.733 939.46 102.94C939.831 103.053 940.081 103.231 940.267 103.288L943.421 104.251ZM933.684 112.23C933.598 112.511 933.634 112.726 933.855 112.999C934.076 113.271 934.447 113.384 934.911 113.526C935.654 113.752 936.239 113.828 936.76 113.783C937.281 113.737 937.552 113.513 937.638 113.232C937.723 112.951 937.659 112.829 937.41 112.65C937.16 112.472 936.817 112.265 936.261 112.095L935.054 111.727C934.683 111.614 934.469 111.651 934.162 111.66C933.92 111.79 933.77 111.949 933.684 112.23ZM936.783 105.398C936.497 106.334 936.633 106.887 937.282 107.085C937.561 107.17 937.868 107.161 938.046 106.909C938.289 106.778 938.496 106.432 938.639 105.964C938.924 105.028 938.789 104.475 938.139 104.276C937.583 104.107 937.069 104.461 936.783 105.398Z" fill="#161616"/>
<path fill-rule="evenodd" clip-rule="evenodd" d="M949.057 110.371C949.228 109.809 949.278 109.313 949.179 108.976C949.079 108.638 948.858 108.366 948.486 108.253C947.93 108.083 947.502 108.157 947.173 108.568C946.873 108.886 946.459 109.578 946.145 110.608L944.945 114.541L941.883 113.606L944.597 104.712L946.917 105.42L946.945 106.657L947.131 106.713C947.523 106.424 948.009 106.162 948.53 106.117C949.051 106.071 949.636 106.147 950.193 106.317C951.213 106.628 951.87 107.136 952.255 107.867C952.64 108.599 952.661 109.527 952.347 110.556L950.576 116.361L947.514 115.427L949.057 110.371Z" fill="#161616"/>
<path d="M960.373 119.146L960.096 115.07L955.55 113.683L953.044 116.91L951.745 116.513L959.805 106.385L960.919 106.725L961.857 119.599L960.373 119.146ZM960.004 113.712L959.79 109.758C959.748 109.233 959.734 108.615 959.748 107.903C959.512 108.342 959.155 108.848 958.77 109.446L956.385 112.608L960.004 113.712Z" fill="#161616"/>
<path fill-rule="evenodd" clip-rule="evenodd" d="M970.114 122.119L970.08 116.582C970.073 116.273 970.116 115.467 970.151 114.352L970.059 114.324C969.587 115.203 969.202 115.802 968.845 116.307L965.725 120.882L964.241 120.429L964.55 111.108L965.941 111.532C965.841 113.855 965.698 115.654 965.726 116.891C965.661 118.099 965.618 118.905 965.504 119.279L965.597 119.308C965.775 119.055 965.982 118.709 966.218 118.269C966.454 117.829 966.753 117.511 966.932 117.259L970.023 112.778L971.415 113.203L971.385 118.618C971.378 119.639 971.335 120.445 971.256 121.035L971.349 121.063C971.406 120.876 971.585 120.623 971.791 120.277C971.998 119.93 973.212 117.947 975.311 114.391L976.61 114.788L971.662 122.693L970.085 122.212L970.114 122.119Z" fill="#161616"/>
<path d="M980.782 125.374L980.875 124.072L980.783 124.044C980.147 124.464 979.662 124.725 979.141 124.771C978.62 124.817 978.127 124.769 977.478 124.571C976.643 124.316 976.051 123.93 975.73 123.321C975.409 122.711 975.302 122.064 975.559 121.222C976.102 119.443 977.751 119.025 980.562 119.781L982.075 120.14L982.247 119.578C982.447 118.923 982.433 118.305 982.24 117.939C982.047 117.573 981.641 117.244 980.991 117.046C980.249 116.819 979.45 116.78 978.379 116.965L978.322 115.822C978.843 115.776 979.271 115.702 979.885 115.685C980.378 115.733 980.963 115.809 981.427 115.951C982.447 116.262 983.132 116.676 983.453 117.285C983.774 117.895 983.823 118.729 983.538 119.665L981.738 125.563L980.811 125.281L980.782 125.374ZM978.099 123.532C978.934 123.787 979.548 123.77 980.155 123.443C980.761 123.116 981.118 122.611 981.376 121.769L981.604 121.02L980.277 120.717C979.256 120.406 978.457 120.366 977.907 120.506C977.358 120.645 977.029 121.056 976.858 121.618C976.715 122.086 976.786 122.517 977.007 122.79C977.293 123.184 977.635 123.391 978.099 123.532Z" fill="#161616"/>
<path fill-rule="evenodd" clip-rule="evenodd" d="M990.982 118.867C991.353 118.98 991.724 119.093 991.974 119.272L991.417 120.432C991.074 120.225 990.796 120.14 990.518 120.055C989.868 119.857 989.133 119.94 988.498 120.36C987.862 120.78 987.356 121.444 987.098 122.287L985.699 126.875L984.4 126.478L987.028 117.865L988.049 118.176L987.749 119.824L987.841 119.853C988.291 119.376 988.898 119.049 989.355 118.882C989.904 118.742 990.425 118.697 990.982 118.867Z" fill="#161616"/>
<path d="M997.081 129.12C996.174 129.764 995.104 129.949 993.898 129.581C992.784 129.241 992.064 128.612 991.643 127.665C991.223 126.718 991.287 125.51 991.716 124.105C992.144 122.701 992.766 121.662 993.643 121.111C994.521 120.56 995.498 120.347 996.612 120.687C997.725 121.027 998.51 121.778 998.902 122.819L998.995 122.847L999.102 122.163L1000.39 117.95L1001.69 118.347L997.944 130.611L996.924 130.3L997.081 129.12ZM994.426 128.514C995.354 128.797 995.996 128.686 996.603 128.36C997.117 128.005 997.559 127.219 997.874 126.189L997.959 125.908C998.331 124.691 998.402 123.792 998.11 123.089C997.91 122.414 997.318 122.028 996.39 121.745C995.648 121.519 995.006 121.63 994.342 122.143C993.799 122.592 993.264 123.35 992.921 124.473C992.578 125.597 992.507 126.496 992.706 127.171C993.12 127.809 993.591 128.26 994.426 128.514Z" fill="#161616"/>
<path fill-rule="evenodd" clip-rule="evenodd" d="M1006.91 130.79C1006.66 131.633 1006.21 132.11 1005.42 132.38C1004.72 132.678 1003.82 132.61 1002.71 132.271C1001.6 131.931 1000.73 131.461 1000.19 130.888L1000.56 129.671C1000.88 129.971 1001.28 130.3 1001.72 130.535C1002.15 130.77 1002.59 131.005 1003.05 131.147C1003.7 131.345 1004.29 131.421 1004.72 131.347C1005.14 131.273 1005.44 130.956 1005.59 130.487C1005.7 130.113 1005.6 129.775 1005.38 129.503C1005.19 129.137 1004.72 128.687 1003.97 128.151C1003.22 127.615 1002.75 127.165 1002.53 126.892C1002.21 126.592 1002.11 126.255 1002.01 125.917C1001.91 125.58 1001.93 125.177 1002.05 124.803C1002.25 124.147 1002.7 123.67 1003.4 123.372C1004.1 123.074 1004.9 123.113 1005.92 123.424C1006.84 123.707 1007.72 124.178 1008.44 124.807L1007.66 125.695C1006.94 125.066 1006.16 124.624 1005.51 124.426C1004.86 124.228 1004.37 124.18 1004.03 124.282C1003.7 124.384 1003.43 124.608 1003.31 124.983C1003.25 125.17 1003.26 125.479 1003.33 125.601C1003.36 125.817 1003.52 125.967 1003.74 126.239C1003.96 126.512 1004.37 126.84 1005.02 127.348C1005.93 128.034 1006.47 128.606 1006.72 129.094C1007.04 129.704 1007.09 130.228 1006.91 130.79Z" fill="#161616"/>
<rect x="522" y="1" width="274" height="88" rx="44" fill="white" stroke="black" stroke-width="2"/>
<path d="M603.555 39.6932V42.3352H594V39.6932H603.555ZM596.62 56.6023V37.7337C596.62 36.6768 596.851 35.7998 597.314 35.1026C597.776 34.3981 598.389 33.8733 599.152 33.5284C599.915 33.1761 600.745 33 601.64 33C602.3 33 602.866 33.055 603.335 33.1651C603.805 33.2679 604.154 33.3633 604.381 33.4514L603.61 36.1154C603.456 36.0714 603.258 36.02 603.016 35.9613C602.774 35.8952 602.48 35.8622 602.135 35.8622C601.335 35.8622 600.763 36.0604 600.418 36.4567C600.08 36.853 599.912 37.4254 599.912 38.174V56.6023H596.62Z" fill="black"/>
<path d="M610.428 56.9766C609.356 56.9766 608.387 56.7784 607.521 56.3821C606.655 55.9785 605.969 55.395 605.463 54.6317C604.964 53.8685 604.714 52.9328 604.714 51.8246C604.714 50.8705 604.898 50.0852 605.265 49.4688C605.632 48.8523 606.127 48.3642 606.751 48.0046C607.375 47.645 608.072 47.3735 608.842 47.19C609.613 47.0065 610.398 46.8671 611.198 46.7717C612.211 46.6542 613.033 46.5588 613.664 46.4854C614.295 46.4047 614.754 46.2763 615.04 46.1001C615.326 45.924 615.47 45.6378 615.47 45.2415V45.1644C615.47 44.203 615.198 43.4581 614.655 42.9297C614.119 42.4013 613.319 42.1371 612.255 42.1371C611.147 42.1371 610.274 42.3829 609.635 42.8746C609.004 43.359 608.567 43.8984 608.325 44.4929L605.232 43.7884C605.599 42.7609 606.134 41.9316 606.839 41.3004C607.551 40.6619 608.369 40.1996 609.294 39.9134C610.219 39.6198 611.191 39.473 612.211 39.473C612.886 39.473 613.602 39.5537 614.358 39.7152C615.121 39.8693 615.833 40.1555 616.493 40.5739C617.161 40.9922 617.708 41.5903 618.134 42.3683C618.559 43.1389 618.772 44.1406 618.772 45.3736V56.6023H615.558V54.2905H615.426C615.213 54.7161 614.893 55.1345 614.468 55.5455C614.042 55.9564 613.495 56.2977 612.828 56.5692C612.16 56.8408 611.36 56.9766 610.428 56.9766ZM611.143 54.3345C612.053 54.3345 612.831 54.1547 613.477 53.7951C614.13 53.4355 614.626 52.9658 614.963 52.386C615.308 51.7989 615.481 51.1714 615.481 50.5036V48.3239C615.363 48.4413 615.136 48.5514 614.798 48.6541C614.468 48.7495 614.09 48.8339 613.664 48.9073C613.239 48.9734 612.824 49.0357 612.42 49.0945C612.017 49.1458 611.679 49.1899 611.407 49.2266C610.769 49.3073 610.186 49.4431 609.657 49.6339C609.136 49.8247 608.718 50.0999 608.402 50.4595C608.094 50.8118 607.94 51.2815 607.94 51.8686C607.94 52.6832 608.241 53.2997 608.842 53.718C609.444 54.129 610.211 54.3345 611.143 54.3345Z" fill="black"/>
<path d="M629.349 56.9435C627.712 56.9435 626.303 56.5729 625.122 55.8317C623.947 55.0831 623.045 54.052 622.413 52.7383C621.782 51.4246 621.467 49.9201 621.467 48.2248C621.467 46.5075 621.79 44.992 622.435 43.6783C623.081 42.3572 623.991 41.3261 625.166 40.5849C626.34 39.8436 627.723 39.473 629.316 39.473C630.6 39.473 631.745 39.7115 632.75 40.1886C633.756 40.6583 634.567 41.3188 635.183 42.1701C635.807 43.0214 636.178 44.0159 636.295 45.1534H633.092C632.916 44.3608 632.512 43.6783 631.881 43.1058C631.257 42.5334 630.42 42.2472 629.371 42.2472C628.453 42.2472 627.65 42.4893 626.96 42.9737C626.277 43.4508 625.745 44.1333 625.364 45.0213C624.982 45.902 624.791 46.9441 624.791 48.1477C624.791 49.3807 624.978 50.4448 625.353 51.3402C625.727 52.2356 626.255 52.9291 626.938 53.4208C627.628 53.9125 628.439 54.1584 629.371 54.1584C629.995 54.1584 630.56 54.0446 631.066 53.8171C631.58 53.5823 632.009 53.2483 632.354 52.8153C632.706 52.3823 632.952 51.8613 633.092 51.2521H636.295C636.178 52.3456 635.822 53.3217 635.227 54.1804C634.633 55.0391 633.837 55.7143 632.839 56.206C631.848 56.6977 630.685 56.9435 629.349 56.9435Z" fill="black"/>
<path d="M646.173 56.9435C644.507 56.9435 643.072 56.5876 641.868 55.8757C640.672 55.1565 639.747 54.1474 639.094 52.8484C638.448 51.542 638.126 50.0118 638.126 48.2578C638.126 46.5258 638.448 44.9993 639.094 43.6783C639.747 42.3572 640.658 41.3261 641.824 40.5849C642.999 39.8436 644.371 39.473 645.942 39.473C646.896 39.473 647.82 39.6308 648.716 39.9464C649.611 40.262 650.415 40.7573 651.127 41.4325C651.839 42.1077 652.4 42.9847 652.811 44.0636C653.222 45.1351 653.427 46.4377 653.427 47.9716V49.1385H639.986V46.6726H650.202C650.202 45.8066 650.026 45.0397 649.674 44.3718C649.321 43.6966 648.826 43.1645 648.187 42.7756C647.556 42.3866 646.815 42.1921 645.964 42.1921C645.039 42.1921 644.232 42.4196 643.542 42.8746C642.859 43.3223 642.331 43.9094 641.957 44.636C641.59 45.3552 641.406 46.1368 641.406 46.9808V48.9073C641.406 50.0375 641.604 50.9989 642.001 51.7915C642.404 52.5842 642.966 53.1896 643.685 53.608C644.404 54.0189 645.244 54.2244 646.206 54.2244C646.83 54.2244 647.398 54.1364 647.912 53.9602C648.426 53.7768 648.87 53.5052 649.244 53.1456C649.618 52.786 649.905 52.342 650.103 51.8136L653.218 52.375C652.969 53.2924 652.521 54.096 651.875 54.7859C651.237 55.4684 650.433 56.0005 649.464 56.3821C648.503 56.7564 647.406 56.9435 646.173 56.9435Z" fill="black"/>
<path d="M656.414 56.6023V34.0568H659.705V42.4343H659.903C660.094 42.082 660.369 41.6747 660.729 41.2124C661.089 40.75 661.588 40.3464 662.226 40.0014C662.865 39.6491 663.709 39.473 664.758 39.473C666.123 39.473 667.341 39.8179 668.413 40.5078C669.484 41.1977 670.325 42.1921 670.934 43.4911C671.55 44.7901 671.859 46.3533 671.859 48.1808C671.859 50.0082 671.554 51.575 670.945 52.8814C670.336 54.1804 669.499 55.1822 668.435 55.8867C667.371 56.5839 666.156 56.9325 664.791 56.9325C663.764 56.9325 662.923 56.7601 662.27 56.4151C661.624 56.0702 661.118 55.6665 660.751 55.2042C660.384 54.7418 660.102 54.3308 659.903 53.9712H659.628V56.6023H656.414ZM659.639 48.1477C659.639 49.3366 659.812 50.3788 660.157 51.2741C660.502 52.1695 661.001 52.8704 661.654 53.3768C662.307 53.8758 663.107 54.1254 664.054 54.1254C665.037 54.1254 665.859 53.8648 666.52 53.3438C667.18 52.8153 667.679 52.0998 668.017 51.1971C668.362 50.2944 668.534 49.2779 668.534 48.1477C668.534 47.0322 668.365 46.0304 668.028 45.1424C667.697 44.2544 667.198 43.5535 666.531 43.0398C665.87 42.526 665.044 42.2692 664.054 42.2692C663.1 42.2692 662.292 42.515 661.632 43.0067C660.979 43.4985 660.483 44.1847 660.146 45.0653C659.808 45.946 659.639 46.9735 659.639 48.1477Z" fill="black"/>
<path d="M681.747 56.9435C680.162 56.9435 678.779 56.5803 677.597 55.8537C676.415 55.1271 675.498 54.1107 674.845 52.8043C674.192 51.498 673.865 49.9715 673.865 48.2248C673.865 46.4708 674.192 44.9369 674.845 43.6232C675.498 42.3095 676.415 41.2894 677.597 40.5629C678.779 39.8363 680.162 39.473 681.747 39.473C683.333 39.473 684.716 39.8363 685.897 40.5629C687.079 41.2894 687.996 42.3095 688.65 43.6232C689.303 44.9369 689.629 46.4708 689.629 48.2248C689.629 49.9715 689.303 51.498 688.65 52.8043C687.996 54.1107 687.079 55.1271 685.897 55.8537C684.716 56.5803 683.333 56.9435 681.747 56.9435ZM681.758 54.1804C682.786 54.1804 683.637 53.9089 684.312 53.3658C684.987 52.8227 685.487 52.0998 685.809 51.1971C686.14 50.2944 686.305 49.3 686.305 48.2138C686.305 47.1349 686.14 46.1442 685.809 45.2415C685.487 44.3314 684.987 43.6012 684.312 43.0508C683.637 42.5004 682.786 42.2251 681.758 42.2251C680.723 42.2251 679.865 42.5004 679.182 43.0508C678.507 43.6012 678.004 44.3314 677.674 45.2415C677.351 46.1442 677.19 47.1349 677.19 48.2138C677.19 49.3 677.351 50.2944 677.674 51.1971C678.004 52.0998 678.507 52.8227 679.182 53.3658C679.865 53.9089 680.723 54.1804 681.758 54.1804Z" fill="black"/>
<path d="M699.496 56.9435C697.911 56.9435 696.527 56.5803 695.346 55.8537C694.164 55.1271 693.247 54.1107 692.594 52.8043C691.94 51.498 691.614 49.9715 691.614 48.2248C691.614 46.4708 691.94 44.9369 692.594 43.6232C693.247 42.3095 694.164 41.2894 695.346 40.5629C696.527 39.8363 697.911 39.473 699.496 39.473C701.081 39.473 702.465 39.8363 703.646 40.5629C704.828 41.2894 705.745 42.3095 706.398 43.6232C707.052 44.9369 707.378 46.4708 707.378 48.2248C707.378 49.9715 707.052 51.498 706.398 52.8043C705.745 54.1107 704.828 55.1271 703.646 55.8537C702.465 56.5803 701.081 56.9435 699.496 56.9435ZM699.507 54.1804C700.534 54.1804 701.386 53.9089 702.061 53.3658C702.736 52.8227 703.235 52.0998 703.558 51.1971C703.888 50.2944 704.054 49.3 704.054 48.2138C704.054 47.1349 703.888 46.1442 703.558 45.2415C703.235 44.3314 702.736 43.6012 702.061 43.0508C701.386 42.5004 700.534 42.2251 699.507 42.2251C698.472 42.2251 697.614 42.5004 696.931 43.0508C696.256 43.6012 695.753 44.3314 695.423 45.2415C695.1 46.1442 694.938 47.1349 694.938 48.2138C694.938 49.3 695.1 50.2944 695.423 51.1971C695.753 52.0998 696.256 52.8227 696.931 53.3658C697.614 53.9089 698.472 54.1804 699.507 54.1804Z" fill="black"/>
<path d="M713.15 50.8668L713.128 46.8487H713.7L720.437 39.6932H724.378L716.694 47.8395H716.177L713.15 50.8668ZM710.122 56.6023V34.0568H713.414V56.6023H710.122ZM720.8 56.6023L714.746 48.5661L717.014 46.2653L724.841 56.6023H720.8Z" fill="black"/>
<rect x="604" y="122" width="274" height="88" rx="44" fill="white" stroke="black" stroke-width="2"/>
<path fill-rule="evenodd" clip-rule="evenodd" d="M745.659 159.193C742.042 159.967 739.906 163.132 740.4 166.984C740.82 170.251 742.843 172.3 746.2 172.856C748.693 173.269 751.091 172.782 752.787 171.518C754.354 170.351 755.143 168.747 755.284 166.444C755.515 162.682 753.475 159.933 749.901 159.188C748.688 158.935 746.853 158.938 745.659 159.193ZM788.631 159.128C786.71 159.446 785.373 160.313 784.738 161.654C784.133 162.931 784.308 164.975 785.095 165.842C785.473 166.257 786.331 166.759 786.982 166.945C787.3 167.036 788.675 167.233 790.037 167.384C793.006 167.712 793.46 167.894 793.46 168.756C793.46 169.198 793.374 169.376 793.044 169.618C792.687 169.881 792.385 169.93 790.905 169.968C789.348 170.007 789.119 169.979 788.519 169.678C788.082 169.458 787.783 169.183 787.644 168.873L787.433 168.401H785.767H784.101L784.185 168.873C784.553 170.945 785.71 172.162 787.83 172.707C789.003 173.008 791.98 173.043 793.091 172.767C794.723 172.363 795.803 171.647 796.397 170.574C797.555 168.483 796.612 165.856 794.452 165.15C794.038 165.015 792.631 164.782 791.324 164.632C788.258 164.281 787.451 163.916 787.688 162.989C787.849 162.358 788.802 161.97 790.215 161.959C790.864 161.954 791.572 161.999 791.789 162.059C792.306 162.201 793.082 162.85 793.248 163.278C793.374 163.605 793.436 163.617 795.005 163.617H796.631L796.629 163.146C796.628 162.548 796.067 161.357 795.475 160.694C794.906 160.057 793.444 159.341 792.29 159.134C791.303 158.958 789.675 158.955 788.631 159.128ZM680.405 161.595C678.337 162.865 675.6 164.541 674.323 165.319L672.002 166.734L672 169.686C671.999 172.161 672.032 172.624 672.206 172.559C672.369 172.497 679.637 168.093 683.583 165.664L684.326 165.206L687.565 165.245C691.933 165.298 691.93 165.252 687.701 167.721C685.312 169.117 684.485 169.672 684.375 169.956C684.295 170.164 684.248 170.861 684.272 171.506L684.314 172.678H688.075H691.836V166.113C691.836 160.434 691.806 159.529 691.615 159.41C691.49 159.332 689.815 159.275 687.78 159.279L684.167 159.285L680.405 161.595ZM703.071 159.373C702.897 159.651 697.957 172.395 697.957 172.567C697.957 172.719 698.325 172.751 699.689 172.719L701.421 172.678L701.866 171.446L702.311 170.214H705.247H708.183L708.564 171.304C708.774 171.904 708.999 172.475 709.065 172.573C709.198 172.771 712.489 172.835 712.61 172.642C712.647 172.582 711.504 169.565 710.07 165.937L707.463 159.34L705.302 159.3C704.114 159.278 703.11 159.311 703.071 159.373ZM713.211 159.464C713.167 159.577 713.151 161.813 713.177 164.434C713.221 169.051 713.234 169.222 713.563 169.938C714.255 171.44 715.798 172.471 717.919 172.848C720.788 173.358 723.879 172.495 725.096 170.843C725.922 169.723 725.981 169.265 725.981 164.021V159.258L724.322 159.299L722.663 159.34L722.589 163.835C722.541 166.743 722.455 168.457 722.346 168.691C721.949 169.545 721.017 169.997 719.654 169.995C718.479 169.994 717.856 169.784 717.273 169.192L716.763 168.676L716.689 164.008L716.615 159.34L714.953 159.299C713.627 159.267 713.275 159.3 713.211 159.464ZM727.704 159.363C727.649 159.417 727.604 160.068 727.604 160.81V162.16L729.779 162.2L731.955 162.24L731.993 167.5L732.032 172.76L733.69 172.719L735.347 172.678L735.386 167.423L735.425 162.167H737.64H739.856L739.814 160.754L739.772 159.34L733.788 159.303C730.496 159.282 727.758 159.309 727.704 159.363ZM757.25 166.028V172.788L761.343 172.706C763.594 172.661 765.744 172.551 766.12 172.462C767.806 172.061 768.969 170.934 769.425 169.257C770.003 167.128 769.821 163.404 769.06 161.789C768.088 159.729 766.524 159.275 760.384 159.27L757.25 159.268V166.028ZM771.773 159.447C771.733 159.548 771.719 162.566 771.74 166.154L771.778 172.678H777.162H782.545L782.587 171.267L782.63 169.856L778.9 169.817L775.171 169.779L775.128 168.583L775.085 167.387H778.115H781.144V165.94V164.493L778.157 164.454L775.171 164.415V163.327V162.24L778.9 162.201L782.63 162.162L782.587 160.751L782.545 159.34L777.195 159.302C772.993 159.272 771.829 159.304 771.773 159.447ZM798.763 159.449C798.724 159.549 798.71 162.566 798.731 166.154L798.77 172.678H800.392H802.014L802.088 170.162L802.162 167.646L804.519 170.198L806.875 172.751H808.747C809.777 172.751 810.727 172.71 810.859 172.66C811.049 172.589 810.873 172.335 810.03 171.464C809.442 170.856 808.491 169.869 807.918 169.271C807.345 168.673 806.42 167.713 805.864 167.138L804.852 166.091L806.457 164.383C807.339 163.444 808.432 162.283 808.885 161.805C810.768 159.814 811.078 159.454 810.986 159.363C810.932 159.311 810.045 159.268 809.013 159.268H807.137L806.578 159.884C806.27 160.223 805.508 161.055 804.886 161.732C804.264 162.41 803.429 163.335 803.032 163.787C802.635 164.239 802.26 164.614 802.199 164.62C802.138 164.627 802.088 163.425 802.088 161.95V159.268H800.461C799.296 159.268 798.814 159.319 798.763 159.449ZM749.472 162.251C750.842 162.71 751.793 164.248 751.793 166.009C751.793 167.633 751.07 168.947 749.816 169.606C749.316 169.868 748.969 169.923 747.81 169.923C746.544 169.924 746.342 169.885 745.714 169.522C744.79 168.988 744.33 168.362 744.038 167.242C743.461 165.028 744.395 162.866 746.208 162.221C746.923 161.967 748.671 161.983 749.472 162.251ZM706.216 164.761C706.703 166.136 707.102 167.289 707.102 167.324C707.102 167.358 706.272 167.387 705.258 167.387C704.244 167.387 703.415 167.34 703.415 167.283C703.415 167.114 705.241 162.175 705.287 162.22C705.31 162.243 705.728 163.386 706.216 164.761ZM765.183 162.551C765.977 163.121 766.173 163.779 766.173 165.864C766.173 167.585 766.141 167.812 765.805 168.472C765.229 169.6 764.791 169.776 762.56 169.778L760.716 169.779L760.677 166.157C760.655 164.165 760.673 162.444 760.716 162.332C760.78 162.168 761.172 162.142 762.788 162.196C764.476 162.253 764.843 162.307 765.183 162.551Z" fill="black"/>
<rect x="315.149" y="130.824" width="291.231" height="86.4447" rx="43.2223" transform="rotate(-9.34271 315.149 130.824)" fill="white" stroke="black" stroke-width="2"/>
<path d="M398.917 149.369L392.176 170.313L396.783 169.556L403.527 148.61L398.917 149.369Z" fill="black"/>
<path d="M457.264 147.712L456.723 149.387L456.676 149.395C456.246 148.833 455.655 148.412 454.98 148.188C454.305 148.005 453.596 147.978 452.908 148.109C452.16 148.217 451.448 148.499 450.832 148.934C450.269 149.335 449.804 149.856 449.469 150.458C449.126 151.076 448.903 151.753 448.812 152.452C448.708 153.191 448.717 153.941 448.841 154.676C448.961 155.433 449.177 156.171 449.484 156.873C449.764 157.517 450.172 158.099 450.682 158.585C451.181 159.052 451.785 159.394 452.445 159.584C453.205 159.79 454.005 159.819 454.78 159.671C455.478 159.56 456.143 159.297 456.727 158.902C457.311 158.519 457.752 157.957 457.984 157.302L458.027 157.295L458.278 158.821C458.576 160.629 457.893 161.804 456.195 162.083C454.496 162.362 453.474 161.788 452.895 161.274L452.11 163.739C452.11 163.739 453.615 164.695 456.097 164.287C460.211 163.61 461.817 161.307 461.303 158.183L459.518 147.334L457.264 147.712ZM457.427 154.716C457.38 155.101 457.264 155.475 457.085 155.82C456.907 156.158 456.655 156.454 456.347 156.684C456.007 156.929 455.612 157.088 455.196 157.148C454.763 157.236 454.313 157.198 453.901 157.038C453.541 156.888 453.221 156.657 452.967 156.363C452.702 156.058 452.496 155.707 452.359 155.327C452.207 154.931 452.096 154.522 452.026 154.104C451.956 153.685 451.938 153.259 451.971 152.835C451.999 152.443 452.101 152.06 452.272 151.705C452.435 151.371 452.672 151.078 452.966 150.848C453.292 150.601 453.678 150.443 454.084 150.389C454.535 150.297 455.003 150.323 455.44 150.464C455.806 150.595 456.134 150.814 456.395 151.101C456.67 151.413 456.886 151.771 457.033 152.159C457.199 152.588 457.319 153.034 457.39 153.489C457.462 153.894 457.474 154.307 457.427 154.716Z" fill="black"/>
<path d="M413.8 150.33L414.791 156.355L414.86 156.343C415.118 155.654 415.576 155.055 416.176 154.623C416.7 154.236 417.306 153.975 417.948 153.86C418.667 153.722 419.405 153.726 420.121 153.874C420.664 153.993 421.166 154.251 421.577 154.622C421.98 155.014 422.29 155.489 422.487 156.014C422.727 156.636 422.9 157.283 423.003 157.942L424.174 165.066L420.974 165.592L419.896 159.036C419.824 158.288 419.546 157.574 419.093 156.973C418.716 156.548 418.139 156.387 417.374 156.513C416.499 156.657 415.911 157.021 415.602 157.599C415.293 158.177 415.24 159.059 415.432 160.227L416.434 166.324L413.227 166.851L410.597 150.857L413.8 150.33Z" fill="black"/>
<path d="M424.107 156.271C424.251 155.507 424.558 154.782 425.007 154.144C425.458 153.519 426.034 152.993 426.699 152.599C428.212 151.755 429.975 151.465 431.678 151.78C432.444 151.931 433.167 152.246 433.796 152.703C434.426 153.16 434.948 153.748 435.325 154.426C435.755 155.189 436.041 156.022 436.171 156.887C436.323 157.741 436.317 158.615 436.154 159.467C436.004 160.226 435.697 160.946 435.251 161.58C434.795 162.2 434.211 162.715 433.538 163.091C432.019 163.922 430.261 164.211 428.556 163.911C427.8 163.759 427.085 163.448 426.46 163C425.833 162.544 425.31 161.96 424.928 161.288C424.499 160.533 424.213 159.706 424.085 158.849C423.935 157.996 423.943 157.123 424.107 156.271ZM427.659 159.665C427.809 160.073 428.032 160.45 428.318 160.778C428.589 161.091 428.934 161.33 429.323 161.475C429.776 161.629 430.262 161.661 430.731 161.566C431.208 161.504 431.66 161.318 432.042 161.027C432.371 160.768 432.627 160.429 432.786 160.043C432.95 159.64 433.041 159.212 433.053 158.778C433.071 158.318 433.042 157.857 432.966 157.403C432.891 156.944 432.771 156.493 432.606 156.058C432.457 155.65 432.234 155.273 431.948 154.945C431.669 154.63 431.316 154.387 430.922 154.237C430.467 154.08 429.978 154.046 429.506 154.139C429.06 154.189 428.636 154.356 428.278 154.625C427.921 154.894 427.642 155.253 427.473 155.666C427.306 156.068 427.216 156.497 427.206 156.932C427.188 157.397 427.217 157.862 427.293 158.321C427.367 158.781 427.488 159.231 427.656 159.665L427.659 159.665Z" fill="black"/>
<path d="M445.909 161.476L445.647 159.881L445.581 159.892C445.318 160.583 444.849 161.178 444.237 161.599C443.664 161.992 443.011 162.255 442.324 162.37C441.61 162.511 440.875 162.516 440.159 162.385C439.615 162.274 439.112 162.017 438.705 161.643C438.299 161.254 437.987 160.778 437.791 160.252C437.551 159.63 437.379 158.983 437.276 158.324L436.103 151.193L439.31 150.666L440.386 157.207C440.458 157.957 440.736 158.671 441.19 159.274C441.566 159.695 442.14 159.848 442.912 159.733C443.785 159.59 444.374 159.228 444.68 158.648C444.986 158.07 445.043 157.188 444.851 156.02L443.847 149.919L447.051 149.393L448.954 160.964L445.909 161.476Z" fill="black"/>
<path d="M463.197 142.206L464.188 148.23L464.253 148.219C464.513 147.53 464.972 146.931 465.573 146.498C466.096 146.112 466.703 145.85 467.345 145.735C468.064 145.597 468.802 145.602 469.518 145.749C470.062 145.863 470.567 146.115 470.982 146.481C471.385 146.874 471.697 147.348 471.896 147.872C472.135 148.495 472.307 149.142 472.408 149.801L473.58 156.925L470.376 157.452L469.3 150.91C469.227 150.162 468.949 149.449 468.497 148.847C468.116 148.415 467.542 148.262 466.774 148.388C465.9 148.532 465.312 148.896 465.006 149.473C464.701 150.051 464.644 150.933 464.836 152.101L465.839 158.198L462.631 158.726L460.001 142.731L463.197 142.206Z" fill="black"/>
<path d="M496.672 144.604C496.814 143.843 497.119 143.122 497.566 142.488C498.014 141.854 498.593 141.323 499.265 140.931C500.778 140.087 502.54 139.797 504.244 140.112C505.009 140.265 505.731 140.581 506.36 141.038C506.99 141.495 507.512 142.082 507.89 142.759C508.32 143.521 508.607 144.355 508.737 145.219C508.889 146.073 508.882 146.947 508.719 147.8C508.571 148.559 508.262 149.279 507.813 149.913C507.36 150.532 506.779 151.047 506.107 151.423C504.588 152.253 502.83 152.542 501.126 152.242C500.369 152.091 499.654 151.781 499.029 151.332C498.401 150.875 497.878 150.292 497.494 149.62C497.067 148.864 496.783 148.038 496.655 147.18C496.505 146.328 496.511 145.455 496.672 144.604ZM500.225 147.997C500.376 148.404 500.599 148.781 500.884 149.111C501.157 149.422 501.503 149.661 501.892 149.806C502.345 149.961 502.831 149.993 503.3 149.898C503.777 149.835 504.229 149.65 504.612 149.359C504.939 149.098 505.195 148.76 505.355 148.375C505.519 147.972 505.61 147.543 505.623 147.109C505.641 146.649 505.611 146.189 505.535 145.735C505.461 145.275 505.34 144.825 505.175 144.39C505.026 143.982 504.803 143.605 504.517 143.276C504.237 142.962 503.885 142.72 503.491 142.569C503.036 142.411 502.547 142.378 502.075 142.471C501.599 142.532 501.149 142.72 500.772 143.016C500.455 143.283 500.204 143.619 500.039 143.998C499.873 144.401 499.783 144.829 499.772 145.264C499.757 145.729 499.787 146.194 499.862 146.653C499.936 147.112 500.057 147.562 500.222 147.998L500.225 147.997Z" fill="black"/>
<path d="M520.29 132.815L521.701 141.397L525.054 136.563L528.848 135.939L525.145 140.919L531.252 147.439L527.367 148.078L523.312 143.43L522.265 144.821L522.919 148.799L519.712 149.326L517.083 133.343L520.29 132.815Z" fill="black"/>
<path d="M533.145 144.171C533.321 144.388 533.543 144.563 533.795 144.685C534.059 144.811 534.343 144.89 534.635 144.918C534.946 144.945 535.259 144.932 535.568 144.88C535.807 144.84 536.041 144.774 536.265 144.683C536.495 144.597 536.709 144.476 536.903 144.326C537.086 144.183 537.234 144.002 537.335 143.794C537.447 143.558 537.477 143.292 537.421 143.037C537.342 142.56 536.963 142.255 536.284 142.11C535.361 141.95 534.427 141.855 533.49 141.827C533.006 141.799 532.53 141.751 532.063 141.69C531.619 141.636 531.185 141.518 530.774 141.341C530.396 141.172 530.061 140.92 529.796 140.603C529.51 140.248 529.327 139.82 529.267 139.368C529.134 138.732 529.182 138.071 529.406 137.459C529.613 136.942 529.949 136.487 530.382 136.136C530.845 135.769 531.368 135.483 531.928 135.291C532.519 135.079 533.128 134.921 533.749 134.821C534.366 134.717 534.992 134.675 535.618 134.695C536.199 134.71 536.772 134.827 537.311 135.041C537.826 135.248 538.287 135.568 538.659 135.978C539.078 136.463 539.369 137.044 539.506 137.669L536.46 138.171C536.424 137.919 536.322 137.682 536.163 137.483C536.004 137.284 535.794 137.132 535.555 137.042C535.054 136.892 534.525 136.864 534.011 136.961C533.815 136.994 533.621 137.038 533.429 137.091C533.234 137.144 533.048 137.226 532.878 137.333C532.717 137.432 532.584 137.569 532.49 137.732C532.39 137.914 532.36 138.126 532.405 138.329C532.422 138.461 532.469 138.588 532.543 138.7C532.618 138.811 532.717 138.904 532.833 138.971C533.108 139.129 533.413 139.232 533.728 139.273C534.13 139.334 534.535 139.372 534.941 139.386C535.394 139.406 535.854 139.43 536.323 139.459C536.801 139.485 537.277 139.537 537.749 139.615C538.194 139.683 538.626 139.818 539.031 140.013C539.414 140.198 539.752 140.464 540.02 140.794C540.312 141.173 540.499 141.623 540.56 142.098C540.694 142.719 540.657 143.365 540.454 143.969C540.251 144.572 539.889 145.111 539.406 145.53C538.939 145.939 538.399 146.259 537.813 146.471C537.191 146.703 536.547 146.874 535.89 146.981C535.224 147.092 534.547 147.135 533.872 147.109C533.239 147.088 532.616 146.954 532.032 146.713C531.43 146.47 530.902 146.076 530.499 145.569C530.097 145.063 529.834 144.461 529.738 143.822L532.785 143.321C532.826 143.632 532.95 143.925 533.145 144.171Z" fill="black"/>
<path d="M479.958 153.436C479.581 153.545 479.176 153.514 478.821 153.348C478.548 153.067 478.389 152.697 478.373 152.307L477.432 146.583L479.221 146.289L479.964 143.979L477.085 144.452L476.514 140.981L473.306 141.508L473.877 144.98L472.274 145.244L471.53 147.55L474.223 147.107L475.347 153.941C475.407 154.432 475.588 154.9 475.874 155.303C476.115 155.62 476.44 155.862 476.813 156.003C477.21 156.144 477.63 156.211 478.051 156.2C478.529 156.193 479.007 156.15 479.478 156.07C479.795 156.018 480.116 155.965 480.444 155.889C480.745 155.826 481.042 155.746 481.333 155.649L480.927 153.183C480.776 153.242 480.622 153.291 480.465 153.33C480.311 153.37 480.14 153.406 479.958 153.436Z" fill="black"/>
<path d="M410.835 164.804C410.457 164.914 410.053 164.883 409.697 164.717C409.425 164.436 409.265 164.066 409.249 163.676L408.308 157.952L409.959 157.68L410.702 155.371L407.965 155.821L407.394 152.349L404.19 152.876L404.761 156.348L403.154 156.612L402.41 158.918L405.107 158.475L406.231 165.309C406.289 165.799 406.469 166.268 406.755 166.671C406.996 166.987 407.321 167.229 407.693 167.371C408.094 167.512 408.517 167.579 408.942 167.567C409.42 167.56 409.898 167.516 410.369 167.436C410.686 167.384 411.011 167.331 411.335 167.255C411.635 167.193 411.93 167.113 412.221 167.017L411.815 164.55C411.664 164.609 411.51 164.658 411.352 164.697C411.187 164.739 411.013 164.775 410.835 164.804Z" fill="black"/>
<path d="M515.258 137.855C512.564 138.298 511.938 140.93 511.938 140.93L511.894 140.937L511.54 138.786L508.493 139.287L510.396 150.858L513.6 150.331L512.804 145.493C512.341 142.672 512.688 141.323 515.111 140.924C515.546 140.846 515.994 140.877 516.414 141.015L517.347 138.113C516.692 137.825 515.965 137.735 515.258 137.855Z" fill="black"/>
<path d="M493.014 141.836L492.155 150.026L492.112 150.033L488.837 142.523L485.721 143.036L485.071 151.217L485.027 151.224L481.591 143.715L480.171 148.12L483.813 155.242L487.129 154.696L487.837 146.595L487.881 146.588L491.237 154.021L494.535 153.478L496.308 141.295L493.014 141.836Z" fill="black"/>
</svg>
