<svg width="197" height="27" viewBox="0 0 197 27" fill="none" xmlns="http://www.w3.org/2000/svg">
<path d="M0.516 26H9.22C17.448 26 22.344 21.308 22.344 13.42C22.344 5.532 17.448 0.84 9.22 0.84H0.516V26ZM6.432 21.478V5.362H9.526C13.742 5.362 16.224 8.354 16.224 13.42C16.224 18.486 13.742 21.478 9.526 21.478H6.432ZM31.2852 21.478V15.392H42.6752V10.87H31.2852V5.362H43.8652V0.84H25.3692V26H44.2392V21.478H31.2852ZM62.8717 0.84L57.1597 25.524H57.0917L51.4137 0.84H45.1577L51.7197 26H62.1577L68.7197 0.84H62.8717ZM76.8412 21.342V0.84H70.9252V26H87.5172V21.342H76.8412ZM99.8526 26.34C107.469 26.34 111.957 21.546 111.957 13.42C111.957 5.294 107.469 0.499998 99.8526 0.499998C92.2026 0.499998 87.6806 5.294 87.6806 13.42C87.6806 21.546 92.2026 26.34 99.8526 26.34ZM99.8526 21.716C96.0106 21.716 93.7666 18.622 93.7666 13.42C93.7666 8.218 96.0106 5.124 99.8526 5.124C103.627 5.124 105.871 8.218 105.871 13.42C105.871 18.622 103.627 21.716 99.8526 21.716ZM124.845 0.84H115.053V26H120.969V17.024H124.845C130.999 17.024 134.637 13.998 134.637 8.932C134.637 3.866 130.999 0.84 124.845 0.84ZM125.117 12.502H120.969V5.362H125.117C127.259 5.362 128.551 6.688 128.551 8.932C128.551 11.176 127.259 12.502 125.117 12.502ZM132.949 20.118V26H139.069V20.118H132.949ZM172.737 0.84H161.449L157.811 25.524H157.743L154.479 0.84H143.157L142.205 26H147.815L148.597 1.316H148.665L152.473 26H162.673L166.889 1.316H166.957L167.773 26H173.689L172.737 0.84ZM183.51 21.478V15.392H194.9V10.87H183.51V5.362H196.09V0.84H177.594V26H196.464V21.478H183.51Z" fill="black"/>
</svg>
